<mxfile host="app.diagrams.net" modified="2024-05-17T07:18:48.649Z" agent="Mozilla/5.0 (Windows NT 10.0; Win64; x64) AppleWebKit/537.36 (KHTML, like Gecko) Chrome/122.0.0.0 YaBrowser/24.4.0.0 Safari/537.36" version="24.4.3" etag="Jc9eNlf6LUlVwCTy1rjJ" type="github">
  <diagram name="Страница — 1" id="fyv-TSHl1dX5jrzYTi2e">
    <mxGraphModel>
      <root>
        <mxCell id="0" />
        <mxCell id="1" parent="0" />
      </root>
    </mxGraphModel>
  </diagram>
</mxfile>
